<svg width="20.758335" height="20.758335" viewBox="0 0 20.7583 20.7583" fill="none" xmlns="http://www.w3.org/2000/svg" xmlns:xlink="http://www.w3.org/1999/xlink">
	<desc>
			Created with Pixso.
	</desc>
	<defs>
		<filter id="filter_2_5_dd" x="0.000000" y="0.000000" width="20.758335" height="20.758335" filterUnits="userSpaceOnUse" color-interpolation-filters="sRGB">
			<feFlood flood-opacity="0" result="BackgroundImageFix"/>
			<feBlend mode="normal" in="SourceGraphic" in2="BackgroundImageFix" result="shape"/>
			<feColorMatrix in="SourceAlpha" type="matrix" values="0 0 0 0 0 0 0 0 0 0 0 0 0 0 0 0 0 0 127 0" result="hardAlpha"/>
			<feOffset dx="0" dy="-2.03071"/>
			<feGaussianBlur stdDeviation="0.0902536"/>
			<feComposite in2="hardAlpha" operator="arithmetic" k2="-1" k3="1"/>
			<feColorMatrix type="matrix" values="0 0 0 0 0 0 0 0 0 0 0 0 0 0 0 0 0 0 0.078 0"/>
			<feBlend mode="normal" in2="shape" result="effect_innerShadow_1"/>
		</filter>
	</defs>
	<g filter="url(#filter_2_5_dd)">
		<path id="Vector" d="M10.3792 0C11.7555 0 13.0755 0.546758 14.0488 1.51999C15.022 2.49323 15.5688 3.81322 15.5688 5.18958C15.5688 6.56595 15.022 7.88594 14.0488 8.85917C13.0755 9.83241 11.7555 10.3792 10.3792 10.3792C9.0028 10.3792 7.68281 9.83241 6.70958 8.85917C5.73634 7.88594 5.18958 6.56595 5.18958 5.18958C5.18958 3.81322 5.73634 2.49323 6.70958 1.51999C7.68281 0.546758 9.0028 0 10.3792 0ZM10.3792 12.974C16.1137 12.974 20.7583 15.2963 20.7583 18.1635L20.7583 20.7583L0 20.7583L0 18.1635C0 15.2963 4.64468 12.974 10.3792 12.974Z" fill="#F1F6F5" fill-opacity="1.000000" fill-rule="nonzero"/>
	</g>
</svg>
