<svg width="20" height="21" viewBox="0 0 20 21" fill="none" xmlns="http://www.w3.org/2000/svg">
<path d="M18.2695 11.0809C18.1103 10.8997 18.0225 10.6667 18.0225 10.4256C18.0225 10.1844 18.1103 9.95144 18.2695 9.77025L19.5404 8.34046C19.6805 8.18424 19.7674 7.98768 19.7888 7.77898C19.8102 7.57027 19.765 7.36015 19.6596 7.17876L17.6737 3.7433C17.5694 3.56211 17.4105 3.41849 17.2197 3.33291C17.029 3.24733 16.816 3.22416 16.6113 3.2667L14.7447 3.644C14.5071 3.69308 14.2599 3.65353 14.0495 3.5328C13.8392 3.41207 13.6803 3.21853 13.6028 2.98869L12.9971 1.17166C12.9305 0.974452 12.8036 0.803161 12.6344 0.682003C12.4651 0.560846 12.262 0.495949 12.0539 0.496487H8.08225C7.86573 0.485185 7.65147 0.545066 7.47218 0.666983C7.29289 0.7889 7.15843 0.966151 7.08935 1.17166L6.53332 2.98869C6.45587 3.21853 6.29698 3.41207 6.08662 3.5328C5.87626 3.65353 5.62899 3.69308 5.39147 3.644L3.47516 3.2667C3.2811 3.23928 3.08326 3.2699 2.90657 3.35471C2.72988 3.43952 2.58224 3.57473 2.48225 3.7433L0.496437 7.17876C0.388369 7.35812 0.339779 7.56707 0.357612 7.77572C0.375445 7.98436 0.458789 8.18203 0.595728 8.34046L1.85672 9.77025C2.0159 9.95144 2.10369 10.1844 2.10369 10.4256C2.10369 10.6667 2.0159 10.8997 1.85672 11.0809L0.595728 12.5107C0.458789 12.6691 0.375445 12.8668 0.357612 13.0754C0.339779 13.2841 0.388369 13.493 0.496437 13.6724L2.48225 17.1078C2.58661 17.289 2.74549 17.4326 2.93626 17.5182C3.12703 17.6038 3.33995 17.627 3.54466 17.5844L5.41133 17.2071C5.64885 17.158 5.89612 17.1976 6.10648 17.3183C6.31684 17.4391 6.47573 17.6326 6.55318 17.8624L7.15885 19.6795C7.22793 19.885 7.36239 20.0622 7.54168 20.1841C7.72097 20.3061 7.93524 20.3659 8.15176 20.3546H12.1234C12.3315 20.3552 12.5346 20.2903 12.7039 20.1691C12.8731 20.048 13 19.8767 13.0667 19.6795L13.6723 17.8624C13.7498 17.6326 13.9087 17.4391 14.119 17.3183C14.3294 17.1976 14.5766 17.158 14.8142 17.2071L16.6808 17.5844C16.8855 17.627 17.0985 17.6038 17.2892 17.5182C17.48 17.4326 17.6389 17.289 17.7432 17.1078L19.7291 13.6724C19.8345 13.491 19.8797 13.2809 19.8583 13.0722C19.8369 12.8634 19.75 12.6669 19.6099 12.5107L18.2695 11.0809ZM16.7901 12.4114L17.5844 13.305L16.3135 15.5093L15.1418 15.271C14.4267 15.1248 13.6828 15.2463 13.0514 15.6123C12.4199 15.9784 11.9448 16.5636 11.7163 17.2568L11.339 18.3688H8.79715L8.4397 17.2369C8.21119 16.5437 7.73611 15.9585 7.10464 15.5925C6.47318 15.2264 5.72928 15.1049 5.01417 15.2511L3.84254 15.4894L2.55176 13.2951L3.34608 12.4015C3.83455 11.8553 4.1046 11.1483 4.1046 10.4156C4.1046 9.68294 3.83455 8.97594 3.34608 8.42982L2.55176 7.5362L3.82268 5.35181L4.99431 5.5901C5.70942 5.73628 6.45332 5.61481 7.08478 5.24874C7.71625 4.88267 8.19133 4.2975 8.41984 3.60429L8.79715 2.4823H11.339L11.7163 3.61422C11.9448 4.30742 12.4199 4.8926 13.0514 5.25867C13.6828 5.62474 14.4267 5.74621 15.1418 5.60003L16.3135 5.36173L17.5844 7.56599L16.7901 8.45961C16.3071 9.00448 16.0404 9.70738 16.0404 10.4355C16.0404 11.1636 16.3071 11.8665 16.7901 12.4114ZM10.0681 6.45393C9.28255 6.45393 8.51468 6.68687 7.86155 7.12327C7.20842 7.55968 6.69936 8.17997 6.39876 8.90569C6.09816 9.63141 6.01951 10.43 6.17275 11.2004C6.326 11.9708 6.70426 12.6785 7.2597 13.2339C7.81514 13.7894 8.52282 14.1676 9.29324 14.3209C10.0637 14.4741 10.8622 14.3955 11.5879 14.0949C12.3137 13.7943 12.934 13.2852 13.3704 12.6321C13.8068 11.979 14.0397 11.2111 14.0397 10.4256C14.0397 9.37222 13.6213 8.36202 12.8764 7.6172C12.1316 6.87237 11.1214 6.45393 10.0681 6.45393ZM10.0681 12.4114C9.67531 12.4114 9.29137 12.2949 8.96481 12.0767C8.63824 11.8585 8.38372 11.5484 8.23341 11.1855C8.08311 10.8226 8.04379 10.4234 8.12041 10.0382C8.19703 9.65294 8.38616 9.2991 8.66389 9.02138C8.94161 8.74366 9.29545 8.55453 9.68066 8.47791C10.0659 8.40128 10.4651 8.44061 10.828 8.59091C11.1909 8.74121 11.501 8.99574 11.7192 9.3223C11.9374 9.64887 12.0539 10.0328 12.0539 10.4256C12.0539 10.9522 11.8447 11.4573 11.4723 11.8297C11.0998 12.2022 10.5947 12.4114 10.0681 12.4114Z" fill="white"/>
</svg>
